<?xml version="1.0" encoding="utf-8"?>
<!-- Generator: Adobe Illustrator 22.0.0, SVG Export Plug-In . SVG Version: 6.00 Build 0)  -->
<svg version="1.1" id="Layer_1" xmlns="http://www.w3.org/2000/svg" xmlns:xlink="http://www.w3.org/1999/xlink" x="0px" y="0px"
	 viewBox="0 0 61 78" style="enable-background:new 0 0 61 78;" xml:space="preserve">
<style type="text/css">
	.st0{fill-rule:evenodd;clip-rule:evenodd;fill:#007FBD;}
	.st1{fill:#FFFFFF;}
</style>
<path class="st0" d="M30.5,0C47.3,0,61,13.6,61,30.4C61,47.2,30.5,78,30.5,78S0,47.2,0,30.4C0,13.6,13.7,0,30.5,0z"/>
<path class="st1" d="M23.3,43.5c-0.4-0.2-0.7-0.2-1.1,0c-0.6,0.2-1.3,0.4-1.9,0.4c-1.6,0.1-3-1.1-3.3-2.7c-0.2-0.9-0.2-1.8-0.4-2.7
	c-0.1-0.7-0.3-1.3-0.7-1.9c-1-1.7-1.6-3.6-1.9-5.6c-0.5-3.7,0.3-7.2,2.3-10.3c2.3-3.7,5.6-6.1,9.9-7.1c3.8-0.9,7.5-0.5,11.1,1.3
	c0.7,0.3,0.7,0.4,1.3-0.2c0.8-0.8,1.5-1.6,2.3-2.3c0.8-0.8,1.6-1.4,2.8-1.5c3.3-0.5,5.4,2.1,5.3,4.6c0,1.2-0.6,2.2-1.3,3
	c-1,1-2,2-3,3c-0.2,0.2-0.2,0.4-0.1,0.7c1.2,2.5,1.7,5.2,1.5,8c-0.2,3.2-1.3,6.2-3.3,8.7c-2.4,3.1-5.5,5-9.3,5.8
	C32.3,44.9,31,45,30.1,45C27.9,45,25.5,44.4,23.3,43.5z M25.1,21.2c0.4-0.2,0.7-0.3,1.1-0.5c1.6-0.7,3.3-1,5-0.8
	c0.4,0,0.7,0,1.1-0.1c0.9-0.2,1.6-1.1,1.6-2c0-1-0.8-2-1.8-2.1c-1.5-0.2-2.9-0.2-4.4,0.1c-4.2,0.8-7.3,3.1-9.5,6.8
	c-1.1,1.8-1.6,3.8-1.7,5.9c0,0.7,0,1.3,0.4,1.9c0.6,0.7,1.4,1,2.4,0.8c0.9-0.2,1.3-0.8,1.5-1.7c0.2-1.1,0.4-2.2,0.6-3.3
	c0.1-0.5,0.3-0.9,0.5-1.5c0.6,0.6,1.2,1.1,1.8,1.7c1.5,1.5,3,3,4.5,4.4c0.5,0.5,1,0.9,1.8,1c0.8,0.1,1.4-0.4,2-0.9
	c1.9-1.9,3.9-3.9,5.8-5.8c0.1-0.1,0.2-0.2,0.3-0.3c1.9,2.8,1.7,7.6-1.3,10.7c-3.4,3.5-8.1,3.2-11,1.7c0.1-0.1,0.1-0.2,0.2-0.2
	c0.4-0.5,0.8-0.9,1.1-1.4c0.5-0.7,0.1-1.4-0.6-1.6c-0.5-0.1-1-0.2-1.5-0.3c-1.7-0.2-3.4-0.4-5.2-0.5c-0.1,0-0.3,0-0.4,0.1
	c-0.4,0.3-0.9,0.7-0.7,1.3c0,0.1,0,0.3,0,0.4c0.1,1.5,0.3,3,0.4,4.5c0,0.5,0.1,0.9,0.2,1.4c0.2,0.7,1.1,1.1,1.7,0.6
	c0.4-0.3,0.8-0.6,1.1-1c0.2-0.2,0.3-0.2,0.6-0.1c2.7,1.6,5.5,2.4,8.7,2.1c2.6-0.2,4.9-1.2,7-2.8c2-1.5,3.5-3.5,4.4-5.9
	c1.1-2.8,1.3-5.7,0.3-8.6c-0.4-1.2-1-2.4-1.6-3.6c-0.1-0.2-0.1-0.3,0.1-0.5c0.3-0.2,0.5-0.5,0.8-0.7c1.2-1.2,2.5-2.5,3.7-3.8
	c0.8-0.8,0.8-2,0-2.9c-0.6-0.6-1.8-1.1-2.8-0.2c-0.4,0.3-0.7,0.6-1.1,1c-1.7,1.7-3.4,3.4-5.2,5.1c-2.1,2.1-4.2,4.2-6.4,6.3
	c-0.2,0.2-0.3,0.3-0.5,0.5C28.4,24.7,26.5,23.3,25.1,21.2z"/>
</svg>
