<?xml version="1.0" encoding="utf-8"?>
<!-- Generator: Adobe Illustrator 22.0.0, SVG Export Plug-In . SVG Version: 6.00 Build 0)  -->
<svg version="1.1" id="Capa_1" xmlns="http://www.w3.org/2000/svg" xmlns:xlink="http://www.w3.org/1999/xlink" x="0px" y="0px"
	 viewBox="0 0 296.9 360.9" style="enable-background:new 0 0 296.9 360.9;" xml:space="preserve">
<style type="text/css">
	.st0{fill:#E6E6E6;}
	.st1{fill:#F40C2D;}
</style>
<path class="st0" d="M296.7,83l-0.2-0.5h-1.7l0-2.1L215.6,1.3c-0.8-0.8-2-1.3-3.2-1.3h-192C9.2,0,0,9.2,0,20.5v320
	c0,11.3,9.2,20.5,20.4,20.5h256c11.3,0,20.5-9.2,20.5-20.5v-256C296.9,84,296.8,83.5,296.7,83z M200.9,96V8.9h9.7L288,86.3V96H200.9
	z M8.9,20.5c0-6.4,5.2-11.5,11.5-11.5H192V48H52.5C50,48,48,50,48,52.5v48c0,2.5,2,4.5,4.5,4.5s4.5-2,4.5-4.5V56.9H192v43.5
	c0,2.5,2,4.5,4.5,4.5H288v235.5c0,6.4-5.2,11.5-11.5,11.5h-256c-6.4,0-11.5-5.2-11.5-11.5V20.5z"/>
<path class="st1" d="M195,181.8c-0.2-0.3-0.4-0.5-0.6-0.8c-0.6-0.7-1.1-1.5-1.8-2.2c-0.7-0.8-1.6-1.4-2.4-2
	c-0.2-0.2-0.5-0.4-0.7-0.6l-0.6-0.5l-40.6,60.9l-20.2-27c-0.9-1.1-2.2-1.8-3.6-1.8c-0.7,0-1.7,0.2-2.6,0.9c-1,0.7-1.6,1.8-1.8,2.9
	s0.1,2.4,0.8,3.3l24,32c0.8,1.1,2.2,1.8,3.6,1.8l0.2,0c1.4-0.1,2.7-0.8,3.5-2l40-59.9l3.2-4.8L195,181.8z"/>
<path d="M206.2,170.5l-1.8-2l11.7-17.6c0.7-1,0.9-2.2,0.7-3.4c-0.2-1.2-0.9-2.2-1.9-2.8c-0.7-0.5-1.6-0.8-2.5-0.8
	c-1.5,0-2.9,0.7-3.7,2l-10.8,16.2l-3-2.3c-13.5-10.4-29.6-15.9-46.5-15.9c-42.2,0-76.5,34.3-76.5,76.5s34.3,76.5,76.5,76.5
	s76.5-34.3,76.5-76.5C224.9,202.2,218.3,184.5,206.2,170.5z M148.5,288c-37.2,0-67.5-30.3-67.5-67.5s30.3-67.5,67.5-67.5
	c15.4,0,29.9,5.1,42,14.7l3,2.4c0,0,1.9,1.7,2.8,2.5c0.9,0.9,2.6,2.7,2.6,2.7c0,0,0,0,0,0l3.6,4.8c8.9,11.8,13.5,25.8,13.5,40.4
	C216,257.7,185.7,288,148.5,288z"/>
</svg>
