<?xml version="1.0" encoding="utf-8"?>
<!-- Generator: Adobe Illustrator 22.0.0, SVG Export Plug-In . SVG Version: 6.00 Build 0)  -->
<svg version="1.1" id="Capa_1" xmlns="http://www.w3.org/2000/svg" xmlns:xlink="http://www.w3.org/1999/xlink" x="0px" y="0px"
	 viewBox="0 0 443.9 503.5" style="enable-background:new 0 0 443.9 503.5;" xml:space="preserve">
<style type="text/css">
	.st0{fill:#F40C2D;}
	.st1{fill:#E6E6E6;}
</style>
<path class="st0" d="M207.3,180.7v-22c0-3.2,2.6-5.7,5.7-5.7s5.7,2.6,5.7,5.7v22c0,3.2-2.6,5.7-5.7,5.7S207.3,183.9,207.3,180.7z
	 M302.1,387.7c1.1,1.1,2.6,1.7,4.1,1.7c1.5,0,3-0.6,4.1-1.7c1.1-1.1,1.7-2.6,1.7-4.1c0-1.5-0.6-3-1.7-4.1c-1.1-1.1-2.5-1.7-4.1-1.7
	c-1.5,0-3,0.6-4.1,1.7c-1.1,1.1-1.7,2.6-1.7,4.1C300.4,385.2,301,386.6,302.1,387.7z M213,394.5c-3.2,0-5.7,2.6-5.7,5.7v22
	c0,3.2,2.6,5.7,5.7,5.7s5.7-2.6,5.7-5.7v-22C218.8,397.1,216.2,394.5,213,394.5z M114.1,197.3c0,1.5,0.6,3,1.7,4.1
	c1.1,1.1,2.6,1.7,4.1,1.7s3-0.6,4.1-1.7c1.1-1.1,1.7-2.6,1.7-4.1c0-1.5-0.6-3-1.7-4.1c-1.1-1.1-2.6-1.7-4.1-1.7s-3,0.6-4.1,1.7
	C114.7,194.3,114.1,195.8,114.1,197.3z M195.8,266.3L195.8,266.3l0.2-0.1c0.5-0.4,1.3-0.9,2.5-1.6l0.1,0l0.1,0l82.5-50
	c0.9-0.5,1.9-0.8,3-0.8c1.5,0,3,0.6,4.1,1.7c1.9,1.9,2.2,4.8,0.9,7L239,305l0,0.1l0,0.1c-0.4,0.7-1.1,1.9-1.6,2.5l-0.1,0.1l-0.1,0.1
	c-5.6,7.8-14.6,12.4-24.2,12.4c-16.4,0-29.7-13.3-29.7-29.8C183.3,280.9,187.9,271.9,195.8,266.3z M224.5,262.3l5.4,3.7
	c3,2.1,5.6,4.6,7.6,7.6l3.7,5.4l3.4-5.6l13.4-22.1l9-14.8l-14.8,9l-22.1,13.4L224.5,262.3z M194.8,290.5c0,10.1,8.2,18.3,18.3,18.3
	c6,0,11.6-3,15-7.9l0.1-0.1l0.1-0.1l0.8-1.4l0.1-0.1l0.1-0.1c1.4-2.6,2.1-5.6,2.1-8.5c0-10.1-8.2-18.3-18.3-18.3
	c-3,0-5.9,0.7-8.5,2.1l-0.1,0.1l-0.1,0.1l-1.4,0.8l-0.1,0.1l-0.1,0.1C197.7,278.8,194.8,284.5,194.8,290.5z"/>
<path d="M300.4,197.3c0-1.5,0.6-3,1.7-4.1c1.1-1.1,2.5-1.7,4.1-1.7c1.5,0,3,0.6,4.1,1.7c1.1,1.1,1.7,2.6,1.7,4.1
	c0,1.5-0.6,3-1.7,4.1c-1.1,1.1-2.6,1.7-4.1,1.7c-1.5,0-3-0.6-4.1-1.7C301,200.3,300.4,198.8,300.4,197.3z M317,290.5
	c0,3.2,2.6,5.7,5.7,5.7h22c3.2,0,5.7-2.6,5.7-5.7c0-3.2-2.6-5.7-5.7-5.7h-22C319.6,284.7,317,287.3,317,290.5z M123.9,379.6
	c-1.1-1.1-2.6-1.7-4.1-1.7c-1.5,0-3,0.6-4.1,1.7c-1.1,1.1-1.7,2.6-1.7,4.1c0,1.5,0.6,3,1.7,4.1c1.1,1.1,2.5,1.7,4.1,1.7
	c1.5,0,3-0.6,4.1-1.7c1.1-1.1,1.7-2.6,1.7-4.1C125.6,382.1,125,380.6,123.9,379.6z M81.3,296.2h22c3.2,0,5.7-2.6,5.7-5.7
	c0-1.5-0.6-3-1.7-4.1c-1.1-1.1-2.5-1.7-4.1-1.7h-22c-3.2,0-5.7,2.6-5.7,5.7C75.5,293.7,78.1,296.2,81.3,296.2z M44,290.5
	c0-93.2,75.8-169,169-169c93.2,0,169,75.8,169,169c0,93.2-75.8,169-169,169C119.8,459.5,44,383.7,44,290.5z M55.5,290.5
	C55.5,377.3,126.2,448,213,448c86.8,0,157.5-70.6,157.5-157.5S299.9,133,213,133C126.2,133,55.5,203.6,55.5,290.5z"/>
<path class="st1" d="M331.6,465.5c-0.3,1.5-1.2,2.8-2.5,3.6c-34.6,22.5-74.7,34.4-116.1,34.4c-56.9,0-110.4-22.2-150.6-62.4
	C22.2,400.9,0,347.4,0,290.5c0-42.6,12.6-83.8,36.3-119c1.1-1.6,2.9-2.5,4.8-2.5h0c1.1,0,2.3,0.3,3.2,1c1.3,0.9,2.1,2.2,2.4,3.7
	c0.3,1.5,0,3-0.9,4.3c-22.5,33.3-34.4,72.2-34.4,112.6C11.5,401.6,101.9,492,213,492c39.2,0,77.2-11.3,109.8-32.5
	c0.9-0.6,2-0.9,3.1-0.9c2,0,3.8,1,4.8,2.6C331.6,462.4,331.9,464,331.6,465.5z M365,431.5c-1.1-1.1-2.5-1.6-4-1.6
	c-1.6,0-3,0.6-4.1,1.7l-0.3,0.3c-2.2,2.3-2.2,5.9,0,8.1c1.1,1.1,2.5,1.7,4,1.7c1.5,0,3-0.6,4.1-1.7l0.4-0.4
	C367.3,437.4,367.3,433.8,365,431.5z M426,290.5c0,39.8-11.1,78.7-32,112.3c-1.1,1.7-2.9,2.7-4.9,2.7c-1.1,0-2.1-0.3-3-0.9
	c-2.7-1.7-3.5-5.2-1.8-7.9c19.8-31.8,30.3-68.6,30.3-106.3C414.5,179.4,324.1,89,213,89c-39.6,0-77.9,11.5-110.8,33.2
	c-0.9,0.6-2,1-3.2,1c-1.9,0-3.7-1-4.8-2.6c-1.7-2.6-1-6.2,1.6-8c24-15.9,50.6-26.5,78.9-31.6l3.5-0.6v-3.6v-17v-4.3H174h-22
	c-3.2,0-5.7-2.6-5.7-5.7v-44c0-3.2,2.6-5.7,5.7-5.7h122c3.2,0,5.7,2.6,5.7,5.7v44c0,3.2-2.6,5.7-5.7,5.7h-22h-4.3v4.3v16.9v3.6
	l3.5,0.6c30,5.4,57.9,17,82.9,34.3l2.9,2l2.5-2.5l12-12l3-3l-3-3l-4.7-4.7c-1.1-1.1-1.7-2.6-1.7-4.1s0.6-3,1.7-4.1l16.7-16.7
	c4.9-4.9,11.5-7.7,18.5-7.7c7,0,13.6,2.7,18.5,7.7l35.7,35.7c10.2,10.2,10.2,26.8,0,37l-16.7,16.7c-1.1,1.1-2.5,1.7-4.1,1.7
	c-1.5,0-3-0.6-4.1-1.7l-4.7-4.7l-3-3l-3,3l-12,12l-2.5,2.5l2,2.9C413,204.9,426,246.8,426,290.5z M236.3,55.5H232h-38h-4.3v4.3V74
	v4.6l4.6-0.4c6.2-0.5,12.5-0.8,18.6-0.8c6.1,0,12.4,0.3,18.6,0.8l4.6,0.4V74V59.8V55.5z M242,44h22h4.3v-4.3v-24v-4.3H264H162h-4.3
	v4.3v24V44h4.3h22H242z M359.1,88l3,3l4.7,4.7l0.2,0.2l0,0l40.7,40.7l0,0l0.1,0.1l4.7,4.7l3,3l3-3l9.6-9.6c5.7-5.7,5.7-15.1,0-20.8
	l-35.7-35.7c-2.8-2.8-6.5-4.3-10.4-4.3c-3.9,0-7.6,1.5-10.4,4.3l-9.6,9.6L359.1,88z M382.5,153.9l10.1-10.1l3-3l-3-3l-26.9-26.9
	l-3-3l-3,3L349.6,121l-3.3,3.3l3.5,3c4.8,4.1,9.5,8.3,13.8,12.6c4.3,4.3,8.5,8.9,12.6,13.8l3,3.5L382.5,153.9z M61.3,143.3
	c0,1.5,0.6,3,1.7,4.1c1.1,1.1,2.6,1.7,4.1,1.7s3-0.6,4.1-1.7c1.1-1.1,1.7-2.6,1.7-4.1s-0.6-3-1.7-4.1c-1.1-1.1-2.6-1.7-4.1-1.7
	c-1.5,0-3,0.6-4.1,1.7C61.9,140.3,61.3,141.8,61.3,143.3z"/>
</svg>
