<?xml version="1.0" encoding="utf-8"?>
<!-- Generator: Adobe Illustrator 22.0.0, SVG Export Plug-In . SVG Version: 6.00 Build 0)  -->
<svg version="1.1" id="Layer_1" xmlns="http://www.w3.org/2000/svg" xmlns:xlink="http://www.w3.org/1999/xlink" x="0px" y="0px"
	 viewBox="0 0 478.5 478.4" style="enable-background:new 0 0 478.5 478.4;" xml:space="preserve">
<style type="text/css">
	.st0{fill:#F40C2D;}
	.st1{fill:#E6E6E6;}
	.st2{fill:#121212;}
</style>
<path class="st0" d="M177.9,207.8c16.6,0,30-13.5,30-30c0-16.6-13.5-30-30-30c-16.6,0-30,13.5-30,30
	C147.9,194.3,161.4,207.8,177.9,207.8z M177.9,159.2c10.2,0,18.5,8.3,18.5,18.5s-8.3,18.5-18.5,18.5c-10.2,0-18.5-8.3-18.5-18.5
	S167.7,159.2,177.9,159.2z M255.8,225.7c-16.6,0-30,13.5-30,30c0,16.6,13.5,30,30,30c16.5,0,30-13.5,30-30
	C285.8,239.1,272.4,225.7,255.8,225.7z M255.7,274.2c-10.2,0-18.5-8.3-18.5-18.5c0-10.2,8.3-18.5,18.5-18.5
	c10.2,0,18.5,8.3,18.5,18.5C274.3,265.9,265.9,274.2,255.7,274.2z M163,276.2L163,276.2c-1.5,0-3-0.6-4-1.7c-1.1-1.1-1.7-2.5-1.7-4
	c0-1.5,0.6-3,1.7-4l111-111c1.1-1.1,2.5-1.7,4-1.7c1.5,0,3,0.6,4,1.7c2.2,2.2,2.2,5.9,0.1,8.1L167.1,274.6
	C166,275.6,164.6,276.2,163,276.2z"/>
<path class="st1" d="M415.1,264.3l-4.3-2.1l2.7-4l14.3-21.8c7.9-11.9,7.9-27.4,0-39.3l-16.2-24.6c-2.8-4.4-4.2-9.4-4-14.6l0,0l0,0
	l1.6-29.7c0.8-14.2-6.9-27.5-19.6-33.9L363.3,81c-4.6-2.3-8.4-6.1-10.7-10.7l-13.3-26.3c-6.1-12.1-18.3-19.6-31.8-19.6
	c-0.7,0-1.3,0-2,0.1l-29.7,1.6c-0.4,0-0.9,0-1.3,0c-4.8,0-9.4-1.4-13.4-4L236.5,5.9C230.6,2,223.8,0,216.8,0c-7,0-13.8,2-19.7,5.9
	l-24.6,16.2c-4.1,2.6-8.8,4-13.6,4c-0.3,0-0.6,0-1,0l0,0l0,0l-29.7-1.6c-0.7,0-1.4-0.1-2-0.1c-13.5,0-25.7,7.5-31.8,19.6L81.1,70.2
	C78.8,74.9,75,78.7,70.4,81L44.1,94.3c-12.7,6.4-20.4,19.7-19.6,33.9l1.6,29.7c0.3,5.2-1.1,10.4-4,14.7L5.9,197.1
	c-7.9,11.9-7.9,27.4,0,39.3l16.2,24.6c2.8,4.4,4.2,9.4,4,14.6l0,0l0,0l-1.6,29.7c-0.8,14.2,6.9,27.5,19.6,33.9l26.3,13.3
	c4.6,2.3,8.4,6.1,10.7,10.7l13.3,26.3c6.1,12.1,18.3,19.6,31.9,19.6c0.7,0,1.3,0,2-0.1l29.7-1.6c0.4,0,0.9,0,1.3,0
	c4.8,0,9.4,1.4,13.3,4l24.6,16.2c5.9,3.9,12.6,5.9,19.7,5.9c7,0,13.8-2,19.7-5.9l21.8-14.3l4-2.6l2.1,4.3
	c9.3,19.1,23.8,35.1,41.8,46.4c17.9,11.1,38.5,17,59.5,17c5.7,0,11.4-0.4,17-1.3c23.9-3.7,45.6-14.6,62.7-31.8
	c17.1-17.1,28.1-38.8,31.7-62.8c3.6-23.9-0.4-47.9-11.6-69.3C454.3,291.8,436.9,274.9,415.1,264.3z M257.6,396.7l1.5,5.3l-4.8,0.1
	L230.1,418c-4,2.6-8.6,4-13.3,4c-4.8,0-9.4-1.4-13.3-4l-24.6-16.2c-5.8-3.8-12.6-5.9-19.6-5.9c-0.7,0-1.4,0-2,0.1l-29.7,1.6
	c-0.4,0-0.8,0-1.2,0c-9.2,0-17.6-5.1-21.8-13.3L91.2,358c-3.4-6.8-9-12.4-15.8-15.8L49.2,329c-8.6-4.4-13.8-13.4-13.3-23l1.6-29.7
	c0.4-7.7-1.6-15.2-5.8-21.6L15.5,230c-5.3-8.1-5.3-18.6,0-26.7l16.3-24.6c4.2-6.3,6.2-14,5.8-21.6L36,127.4
	c-0.5-9.6,4.7-18.6,13.3-23l26.3-13.3c6.8-3.4,12.4-9,15.8-15.8L104.7,49c4.2-8.2,12.5-13.4,21.7-13.4c0.4,0,0.9,0,1.3,0l29.7,1.6
	c0.6,0,1.2,0,1.9,0c7,0,13.9-2,19.8-5.9l24.6-16.2c4-2.6,8.6-4,13.3-4c4.8,0,9.4,1.4,13.3,4l24.4,16.4c5.8,3.8,12.6,5.8,19.5,5.8
	c0.7,0,1.4,0,2-0.1l29.7-1.6c0.4,0,0.8,0,1.2,0c9.2,0,17.6,5.1,21.8,13.3l13.3,26.3c3.4,6.8,9,12.4,15.8,15.8l26.3,13.3
	c8.6,4.4,13.8,13.4,13.3,23l-1.6,29.7c-0.4,7.7,1.6,15.2,5.8,21.7l16.2,24.6c5.3,8.1,5.3,18.6,0,26.7l-16.2,24.5l0,0.1
	c-0.1,0.2-0.3,0.5-0.5,0.9l-1.7,2.6l-3-0.9c-10.1-2.9-20.5-4.3-30.9-4.3c-14.8,0-29.2,2.8-42.8,8.5c-13.8,5.7-26.2,13.9-36.8,24.5
	C257.3,315,246.4,357.4,257.6,396.7z M365.8,466.9L365.8,466.9L365.8,466.9c-55.8,0-101.2-45.4-101.2-101.2
	c0-55.8,45.4-101.2,101.2-101.2c55.8,0,101.2,45.4,101.2,101.2C467,421.4,421.5,466.8,365.8,466.9z"/>
<path class="st2" d="M340.3,375.3v15.9h-16.1v9.8h16.1v20.9h12.9V401h26.2v-9.8h-26.2v-15.9h15.9c12.5,0,22-2.7,28.5-8.1
	c6.5-5.4,9.7-12.5,9.7-21.4c0-20.1-13.1-30.1-39.2-30.1c-2.3,0-7,0.1-14.2,0.2c-7.1,0.1-11.6,0.2-13.6,0.2v49.5h-16.1v9.8H340.3z
	 M393.6,346.6c0,6.3-2.2,11-6.5,14.1c-4.3,3.1-10.5,4.7-18.5,4.7h-15.4V328c6.7-0.2,12-0.3,16.1-0.3
	C385.5,327.7,393.6,334,393.6,346.6L393.6,346.6z"/>
</svg>
